<svg width="44" height="45" viewBox="0 0 44 45" fill="none" xmlns="http://www.w3.org/2000/svg">
<path fill-rule="evenodd" clip-rule="evenodd" d="M42.8756 5.575L39.4778 1.375C38.8178 0.525 37.8156 0 36.6667 0H7.33333C6.18444 0 5.18222 0.525 4.49778 1.375L1.12444 5.575C0.415556 6.425 0 7.55 0 8.75V40C0 42.75 2.2 45 4.88889 45H39.1111C41.8 45 44 42.75 44 40V8.75C44 7.55 43.5844 6.425 42.8756 5.575ZM21.1444 35.375L8.55556 22.5H17.1111V17.5H26.8889V22.5H35.4444L22.8556 35.375C22.3911 35.85 21.6089 35.85 21.1444 35.375ZM5.18222 5L7.16222 2.5H36.4956L38.7933 5H5.18222Z" fill="#EFEFEF"/>
</svg>
