<svg width="270" height="270" viewBox="0 0 270 270" fill="none" xmlns="http://www.w3.org/2000/svg">
<circle cx="135" cy="135" r="135" fill="#626262"/>
<path d="M189.076 217.909C189.076 222.077 190.575 225.632 193.562 228.577C196.55 231.525 200.159 233 204.388 233C208.611 233 212.22 231.525 215.207 228.577C218.198 225.632 219.694 222.077 219.694 217.909C219.694 213.742 218.199 210.187 215.207 207.239C212.22 204.294 208.611 202.819 204.388 202.819C200.159 202.819 196.55 204.294 193.562 207.239C190.575 210.187 189.076 213.742 189.076 217.909Z" fill="#EFEFEF"/>
<path d="M232.727 84.3297C231.212 82.8361 229.419 82.0891 227.346 82.0891H83.7172C83.6364 81.5395 83.4571 80.5381 83.1781 79.0841C82.8991 77.6294 82.6805 76.4707 82.5209 75.6052C82.3605 74.7434 82.0631 73.7011 81.6237 72.483C81.1851 71.264 80.667 70.3002 80.0692 69.5945C79.4723 68.8851 78.6752 68.2776 77.6783 67.7652C76.6822 67.256 75.5454 67 74.2704 67H43.6553C41.5811 67 39.7875 67.7482 38.2728 69.2398C36.7577 70.7329 36 72.5024 36 74.5456C36 76.5888 36.7577 78.3574 38.2728 79.8505C39.7887 81.3441 41.5827 82.0903 43.6553 82.0903H68.0493L89.2158 179.12C89.0574 179.434 88.2402 180.926 86.7645 183.6C85.2897 186.273 84.1139 188.611 83.2376 190.615C82.3609 192.621 81.9223 194.173 81.9223 195.272C81.9223 197.315 82.6801 199.084 84.1943 200.58C85.711 202.069 87.5042 202.819 89.5772 202.819H97.2309H204.385H212.034C214.107 202.819 215.901 202.069 217.415 200.58C218.932 199.085 219.688 197.316 219.688 195.272C219.688 193.229 218.932 191.46 217.415 189.967C215.901 188.475 214.107 187.726 212.034 187.726H102.013C103.927 183.952 104.884 181.44 104.884 180.182C104.884 179.394 104.784 178.529 104.584 177.588C104.384 176.647 104.146 175.604 103.867 174.462C103.587 173.326 103.409 172.481 103.329 171.93L228.186 157.547C230.177 157.309 231.812 156.467 233.088 155.011C234.364 153.559 235 151.889 235 150.001V89.6371C234.999 87.5939 234.244 85.8253 232.727 84.3297Z" fill="#EFEFEF"/>
<path d="M81.9219 217.909C81.9219 222.077 83.416 225.632 86.4064 228.577C89.3975 231.525 93.0036 233 97.2305 233C101.455 233 105.063 231.525 108.052 228.577C111.042 225.632 112.538 222.077 112.538 217.909C112.538 213.742 111.044 210.187 108.052 207.239C105.063 204.294 101.455 202.819 97.2305 202.819C93.0041 202.819 89.3959 204.294 86.4064 207.239C83.4177 210.187 81.9219 213.742 81.9219 217.909Z" fill="#EFEFEF"/>
</svg>
