<svg width="500" height="500" viewBox="0 0 500 500" fill="none" xmlns="http://www.w3.org/2000/svg">
<circle cx="250" cy="250" r="250" fill="#626262"/>
<path d="M250.443 89C180.056 89 123 141.796 123 206.47C123.045 248.039 148.092 285.135 186.702 306.157V335.727H205.639V339.443C203.448 339.884 201.488 340.994 200.082 342.589C198.677 344.183 197.911 346.166 197.911 348.212C197.911 350.257 198.677 352.241 200.082 353.836C201.488 355.43 203.448 356.539 205.639 356.981V361.857C203.448 362.298 201.488 363.407 200.082 365.002C198.677 366.596 197.911 368.581 197.911 370.626C197.911 372.671 198.677 374.655 200.082 376.25C201.488 377.844 203.448 378.954 205.639 379.395V399.74H214.608C214.572 399.913 214.491 400.335 214.491 400.335C214.491 400.349 215.063 403.512 215.069 403.525C215.074 403.54 216.366 405.755 216.377 405.768C216.399 405.795 218.835 407.984 218.879 408.01C218.925 408.037 220.168 408.632 220.611 408.819C221.055 409.036 221.285 409.08 221.612 409.21C222.919 409.601 223.904 409.775 224.845 409.909C226.728 410.17 228.697 410.371 231.235 410.575C236.31 410.923 243.006 411.009 250.442 411.009C257.876 411.009 264.572 410.923 269.648 410.575C272.187 410.445 274.305 410.183 276.192 409.909C277.135 409.779 277.92 409.606 279.233 409.21C279.561 409.123 279.942 409.036 280.387 408.819C280.833 408.602 282.113 408.04 282.158 408.01C282.202 407.983 284.599 405.794 284.621 405.768C284.633 405.755 285.924 403.538 285.93 403.525C285.936 403.511 286.507 400.348 286.507 400.335C286.507 400.333 286.427 399.944 286.392 399.74H295.399V379.535C297.749 379.232 299.901 378.165 301.458 376.531C303.015 374.897 303.872 372.807 303.872 370.643C303.872 368.479 303.015 366.389 301.458 364.755C299.901 363.121 297.749 362.055 295.399 361.752V357.121C297.722 356.793 299.841 355.718 301.371 354.09C302.901 352.463 303.742 350.39 303.742 348.247C303.742 346.104 302.901 344.032 301.371 342.404C299.841 340.777 297.722 339.702 295.399 339.374V335.726H314.297V306.016C352.832 284.959 377.987 248.005 378 206.47C377.999 141.796 320.829 89 250.441 89H250.443ZM250.443 107.029C310.065 107.029 358.37 151.398 358.371 206.47C358.359 243.738 335.788 277.724 299.903 294.758L294.514 297.283V317.697H206.371V297.283L201.098 294.758C165.237 277.736 142.67 243.713 142.63 206.47C142.63 151.398 190.82 107.029 250.443 107.029V107.029ZM250.289 180.093C247.696 180.157 245.235 181.151 243.441 182.858C241.647 184.566 240.664 186.85 240.705 189.213V267.994C240.582 269.236 240.745 270.488 241.183 271.67C241.621 272.851 242.323 273.937 243.247 274.857C244.17 275.778 245.294 276.512 246.546 277.015C247.798 277.518 249.151 277.778 250.52 277.778C251.888 277.778 253.242 277.518 254.494 277.015C255.746 276.512 256.87 275.778 257.793 274.857C258.716 273.937 259.419 272.851 259.857 271.67C260.295 270.488 260.457 269.236 260.335 267.994V189.213C260.356 188.008 260.11 186.81 259.612 185.693C259.114 184.576 258.374 183.561 257.437 182.71C256.499 181.859 255.383 181.188 254.155 180.739C252.927 180.289 251.612 180.069 250.289 180.093H250.289ZM186.24 203.91C185.919 203.908 185.598 203.92 185.278 203.946C183.651 204.083 182.086 204.587 180.725 205.412C179.364 206.237 178.25 207.357 177.482 208.672C176.715 209.987 176.318 211.456 176.329 212.946C176.339 214.435 176.756 215.899 177.542 217.205L217.572 286.937C218.137 288.036 218.942 289.019 219.936 289.827C220.93 290.635 222.094 291.251 223.356 291.638C224.619 292.025 225.955 292.174 227.283 292.077C228.611 291.98 229.903 291.64 231.083 291.075C232.262 290.511 233.303 289.734 234.144 288.793C234.985 287.851 235.608 286.763 235.975 285.596C236.341 284.429 236.445 283.207 236.279 282.003C236.113 280.798 235.68 279.636 235.008 278.588L195.016 208.857C194.198 207.374 192.945 206.127 191.395 205.254C189.846 204.381 188.062 203.915 186.24 203.91H186.24ZM311.528 203.946C309.769 204.004 308.061 204.49 306.578 205.353C305.096 206.217 303.894 207.427 303.098 208.857L263.106 278.588C262.449 279.645 262.032 280.812 261.88 282.019C261.728 283.225 261.844 284.447 262.222 285.612C262.599 286.777 263.231 287.86 264.078 288.798C264.926 289.736 265.972 290.508 267.154 291.069C268.336 291.63 269.631 291.968 270.959 292.064C272.288 292.159 273.625 292.009 274.888 291.623C276.152 291.238 277.318 290.625 278.316 289.819C279.314 289.014 280.124 288.034 280.697 286.937L320.534 217.205C321.363 215.814 321.774 214.247 321.724 212.665C321.674 211.082 321.167 209.541 320.252 208.195C319.338 206.849 318.049 205.747 316.517 205.001C314.985 204.255 313.264 203.891 311.528 203.946V203.946ZM225.27 335.727H275.731V339.305H225.27L225.27 335.727ZM225.27 357.194H275.731V361.719H225.27L225.27 357.194ZM225.27 379.608H275.731V381.85H225.27L225.27 379.608Z" fill="#EFEFEF"/>
</svg>
