<svg width="681" height="663" viewBox="0 0 681 663" fill="none" xmlns="http://www.w3.org/2000/svg">
<ellipse cx="340.5" cy="331.5" rx="340.5" ry="331.5" fill="#626262"/>
<path fill-rule="evenodd" clip-rule="evenodd" d="M170.109 249.85L119.034 347.414C117.272 352.461 115.511 357.507 119.034 362.554C122.556 367.6 129.601 370.964 134.885 370.964H170.109V421.429C170.109 450.025 193.004 471.893 222.945 471.893H258.169V539.179C258.169 544.225 261.692 549.271 265.214 552.636C266.975 554.318 272.259 556 275.781 556H279.304L455.425 522.357C464.231 520.675 469.514 513.946 469.514 505.536V413.018C453.664 418.064 436.051 421.429 416.678 421.429C328.618 421.429 258.169 354.143 258.169 270.036C258.169 185.929 328.618 118.643 416.678 118.643C430.768 118.643 444.858 120.325 458.947 123.689C427.245 98.4571 388.499 85 346.23 85C251.124 85 171.87 159.014 170.109 249.85ZM291.669 233.029C289.908 233.029 286.386 234.711 284.625 238.075C281.102 248.168 279.341 258.261 279.341 268.354C279.341 278.446 281.102 290.221 284.625 300.314C284.625 303.679 288.147 305.361 291.669 305.361C307.52 301.996 321.61 305.361 326.894 313.771C332.177 322.182 326.894 335.639 316.326 347.414C314.565 349.096 314.565 354.143 316.326 355.825C332.177 370.964 351.551 382.739 374.446 387.786C377.969 387.786 381.491 386.104 383.252 382.739C388.536 367.6 397.342 357.507 409.67 357.507C421.999 357.507 430.805 367.6 436.089 382.739C437.85 386.104 439.611 387.786 443.133 387.786H444.895C467.79 382.739 487.164 370.964 503.015 355.825C504.776 354.143 504.776 349.096 503.015 347.414C490.686 335.639 487.164 322.182 492.447 313.771C497.731 305.361 511.821 301.996 527.672 305.361C529.433 305.361 532.955 303.679 534.716 300.314C538.239 290.221 540 278.446 540 268.354C540 258.261 538.239 246.486 534.716 236.393C534.716 233.029 531.194 231.346 527.672 231.346C511.821 234.711 497.731 231.346 492.447 222.936C487.164 214.525 492.447 201.068 503.015 189.293C504.776 187.611 504.776 182.564 503.015 180.882C487.164 165.743 467.79 153.968 444.895 148.921C441.372 148.921 437.85 150.604 436.089 153.968C430.805 169.107 420.238 179.2 409.67 179.2C399.103 179.2 388.536 169.107 383.252 155.65C381.491 152.286 377.969 148.921 374.446 150.604C351.551 155.65 332.177 167.425 316.326 182.564C314.565 184.246 314.565 189.293 316.326 190.975C328.655 202.75 332.177 216.207 326.894 224.618C321.61 233.029 307.52 236.393 291.669 233.029ZM395.581 279.288C395.14 278.446 394.7 277.605 393.82 276.764C392.058 275.082 392.058 271.718 392.058 270.036C392.058 269.195 392.499 267.933 392.939 266.671C393.379 265.41 393.82 264.148 393.82 263.307C393.82 261.625 395.581 259.943 397.342 258.261C404.387 251.532 414.954 251.532 421.999 258.261C422.88 259.102 423.32 259.943 423.76 260.784C424.2 261.625 424.641 262.466 425.521 263.307C427.283 264.989 427.283 268.354 427.283 270.036C427.283 270.877 426.842 272.138 426.402 273.4C425.962 274.662 425.521 275.923 425.521 276.764C425.521 278.446 423.76 280.129 421.999 281.811C421.118 282.652 420.238 283.072 419.357 283.493C418.477 283.913 417.596 284.334 416.715 285.175C414.954 286.857 411.432 286.857 409.67 286.857C404.387 286.857 400.864 285.175 397.342 281.811C396.461 280.97 396.021 280.129 395.581 279.288Z" fill="#EFEFEF"/>
</svg>
